<svg width="197" height="193" viewBox="0 0 197 193" fill="none" xmlns="http://www.w3.org/2000/svg">
<path d="M142.461 3.79157V3.79157ZM142.461 3.79157L143.445 4.36027L144.39 4.99658L145.294 5.69891L146.156 6.46538L146.973 7.2938L147.746 8.18168L148.472 9.12628L149.151 10.1246L149.782 11.1736L150.366 12.2698L150.901 13.4096L151.389 14.5895L151.83 15.8054L152.225 17.0536L152.575 18.3299L152.881 19.6303L153.144 20.9509L153.368 22.2875L153.553 23.6363L153.702 24.9935L153.817 26.3553L153.9 27.7183L153.955 29.0791L153.983 30.4343L153.988 31.7812L153.971 33.1169L153.936 34.4388L153.886 35.7448L153.822 37.033L153.747 38.3016L153.664 39.5492L153.575 40.7747L153.482 41.977L153.386 43.1553L153.291 44.3089L153.199 45.4371L153.11 46.5394L153.028 47.6156L152.955 48.6654L152.892 49.6887L152.841 50.6855L152.805 51.6559L152.784 52.6004L152.781 53.5192L152.797 54.413L152.833 55.2824L152.892 56.1281L152.973 56.951L153.078 57.7521L153.208 58.5324L153.363 59.2931L153.545 60.0354L153.753 60.7605L153.989 61.4696L154.251 62.1643L154.542 62.8458L154.86 63.5155L155.206 64.175L155.579 64.8255L155.979 65.4685L156.406 66.1056L156.859 66.7379L157.338 67.3671L157.842 67.9945L158.371 68.6214L158.923 69.2491L159.499 69.879L160.097 70.5122L160.716 71.1501L161.355 71.7938L162.014 72.4445L162.692 73.1031L163.386 73.7709L164.098 74.4487L164.824 75.1375L165.564 75.8383L166.318 76.5518L167.083 77.2789L167.859 78.0204L168.645 78.7768L169.439 79.549L170.239 80.3374L171.046 81.1426L171.858 81.9652L172.672 82.8055L173.489 83.6641L174.307 84.5411L175.125 85.437L175.941 86.352L176.754 87.2862L177.563 88.2399L178.367 89.2131L179.164 90.2059L179.954 91.2183L180.734 92.2502L181.505 93.3017L182.265 94.3726L183.013 95.4626L183.747 96.5718L184.468 97.6997L185.173 98.8462L185.862 100.011L186.534 101.194L187.187 102.394L187.821 103.611L188.435 104.845L189.028 106.095L189.598 107.36L190.146 108.641L190.669 109.936L191.167 111.245L191.638 112.567L192.082 113.9L192.496 115.245L192.88 116.6L193.231 117.964L193.548 119.336L193.829 120.713L194.072 122.096L194.276 123.481L194.438 124.868L194.556 126.254L194.63 127.638L194.658 129.018L194.638 130.391L194.57 131.757L194.452 133.112L194.283 134.456L194.063 135.785L193.792 137.099L193.468 138.395L193.092 139.671L192.664 140.925L192.183 142.156L191.652 143.362L191.07 144.541L190.438 145.693L189.758 146.815L189.03 147.908L188.256 148.968L187.438 149.997L186.578 150.993L185.677 151.956L184.738 152.885L183.762 153.78L182.753 154.641L181.712 155.469L180.642 156.264L179.545 157.026L178.425 157.756L177.282 158.455L176.121 159.125L174.943 159.765L173.751 160.378L172.548 160.965L171.336 161.528L170.117 162.069L168.894 162.588L167.669 163.089L166.443 163.573L165.219 164.042L163.999 164.499L162.784 164.945L161.576 165.383L160.377 165.815L159.186 166.243L158.007 166.669L156.839 167.095L155.683 167.524L154.539 167.958L153.409 168.398L152.293 168.846L151.19 169.303L150.1 169.772L149.024 170.254L147.961 170.75L146.91 171.261L145.87 171.789L144.842 172.332L143.823 172.894L142.813 173.472L141.811 174.068L140.815 174.681L139.824 175.311L138.837 175.957L137.852 176.618L136.868 177.293L135.883 177.98L134.896 178.677L133.906 179.384L132.91 180.097L131.908 180.814L130.898 181.533L129.879 182.249L128.849 182.961L127.808 183.665L126.754 184.356L125.687 185.032L124.605 185.688L123.509 186.322L122.398 186.928L121.272 187.505L120.131 188.048L118.975 188.554L117.806 189.02L116.623 189.444L115.427 189.823L114.22 190.155L113.002 190.438L111.775 190.669L110.539 190.847L109.297 190.969L108.05 191.035L106.799 191.043L105.547 190.991L104.294 190.88L103.042 190.709L101.794 190.477L100.551 190.185L99.3151 189.832L98.0878 189.42L96.8711 188.948L95.6668 188.418L94.4764 187.832L93.3017 187.19L92.1442 186.495L91.0054 185.749L89.8866 184.953L88.7891 184.111L87.714 183.226L86.6623 182.299L85.6347 181.335L84.6319 180.337L83.6544 179.309L82.7025 178.253L81.7763 177.174L80.8756 176.076L80.0003 174.964L79.1498 173.84L78.3234 172.709L77.5203 171.576L76.7393 170.445L75.9792 169.319L75.2385 168.203L74.5155 167.101L73.8085 166.017L73.1155 164.954L72.4343 163.917L71.7627 162.908L71.0984 161.931L70.4388 160.989L69.7814 160.084L69.1236 159.22L68.4628 158.397L67.7962 157.619L67.1212 156.887L66.4352 156.201L65.7355 155.563L65.0196 154.974L64.2851 154.433L63.5296 153.941L62.751 153.497L61.9472 153.1L61.1162 152.75L60.2565 152.444L59.3665 152.181L58.445 151.959L57.491 151.776L56.5036 151.629L55.4824 151.515L54.427 151.432L53.3374 151.375L52.2138 151.342L51.0569 151.329L49.8673 151.333L48.6462 151.35L47.3949 151.375L46.115 151.405L44.8086 151.436L43.4778 151.464L42.1251 151.485L40.7533 151.495L39.3654 151.49L37.9645 151.466L36.554 151.419L35.1375 151.346L33.7185 151.244L32.3008 151.109L30.8882 150.939L29.4844 150.731L28.0932 150.483L26.718 150.194L25.3625 149.86L24.03 149.482L22.724 149.059L21.4477 148.588L20.2044 148.071L18.9975 147.506L17.8298 146.893L16.7044 146.233L15.6241 145.526L14.5913 144.772L13.6086 143.972L12.678 143.128L11.8016 142.24L10.981 141.31L10.2179 140.339L9.5134 139.33L8.86853 138.285L8.28404 137.204L7.76037 136.091L7.29771 134.948L6.89595 133.777L6.55472 132.581L6.27332 131.362L6.05081 130.123L5.88594 128.867L5.77718 127.595L5.72272 126.311L5.72051 125.018L5.7682 123.717L5.86322 122.412L6.00274 121.105L6.18374 119.797L6.40297 118.492L6.65699 117.192L6.94221 115.898L7.25487 114.612L7.5911 113.336L7.94691 112.071L8.31826 110.819L8.70103 109.581L9.0911 108.357L9.48432 107.15L9.87659 105.958L10.2639 104.782L10.6422 103.623L11.0077 102.48L11.3568 101.353L11.6857 100.242L11.9913 99.1463L12.2704 98.0642L12.5201 96.9954L12.7377 95.9385L12.9211 94.8923L13.0681 93.8553L13.177 92.8262L13.2465 91.8031L13.2755 90.7845L13.2635 89.7687L13.21 88.7538L13.1152 87.7381L12.9794 86.7197L12.8035 85.697L12.5884 84.6683L12.3357 83.6318L12.047 82.5861L11.7243 81.5296L11.3699 80.461L10.9862 79.3791L10.5762 78.2826L10.1426 77.1708L9.68884 76.0428L9.21822 74.8979L8.73436 73.7358L8.24107 72.5561L7.74232 71.3588L7.2422 70.144L6.74489 68.9122L6.25461 67.6639L5.77556 66.3999L5.31192 65.1211L4.86775 63.8286L4.44701 62.5237L4.05349 61.208L3.69076 59.8828L3.36216 58.5501L3.07076 57.2114L2.8193 55.8687L2.6102 54.5239L2.44561 53.1787L2.32748 51.8353L2.25762 50.4956L2.23763 49.1617L2.26894 47.8357L2.3528 46.5197L2.4902 45.2158L2.68196 43.9262L2.92865 42.6529L3.23065 41.398L3.58811 40.1635L4.00101 38.9512L4.46911 37.7632L4.99199 36.6013L5.56907 35.4671L6.19957 34.3625L6.88254 33.2888L7.61689 32.2476L8.40137 31.2403L9.23456 30.2682L10.115 29.3322L11.0409 28.4336L12.0105 27.5731L13.022 26.7514L14.0734 25.9694L15.1625 25.2273L16.2872 24.5255L17.4453 23.8643L18.6345 23.2437L19.8524 22.6636L21.0967 22.1238L22.3649 21.6239L23.6546 21.1635L24.9634 20.7419L26.2889 20.3583L27.6286 20.0119L28.9803 19.7016L30.3414 19.4264L31.7099 19.185L33.0834 18.9762L34.4597 18.7986L35.8368 18.6507L37.2128 18.5309L38.5857 18.4377L39.9536 18.3695L41.315 18.3246L42.6683 18.3014L44.012 18.2982L45.3448 18.3133L46.6656 18.3451L47.9731 18.392L49.2667 18.4525L50.5453 18.525L51.8084 18.6081L53.0555 18.7005L54.2861 18.801L55.4999 18.9083L56.6968 19.0214L57.8766 19.1394L59.0395 19.2615L60.1855 19.3868L61.3148 19.5149L62.4277 19.6451L63.5244 19.777L64.6054 19.9103L65.6711 20.0446L66.7217 20.1798L67.7578 20.3157L68.7798 20.4522L69.7882 20.5893L70.7835 20.7271L71.7661 20.8655L72.7364 21.0047L73.6948 21.1443L74.6415 21.2841L75.5769 21.4237L76.5011 21.5623L77.4142 21.6992L78.3166 21.8336L79.2082 21.9644L80.0893 22.0903L80.96 22.2099L81.8204 22.3217L82.6709 22.424L83.5117 22.5147L84.3429 22.5918L85.165 22.653L85.9784 22.6958L86.7836 22.7178L87.5813 22.7166L88.3722 22.6901L89.1573 22.6362L89.9375 22.553L90.714 22.4387L91.488 22.2919L92.2607 22.1113L93.0336 21.8958L93.8081 21.6447L94.5855 21.3575L95.3676 21.0338L96.1557 20.6736L96.9515 20.2772L97.7563 19.8451L98.5719 19.3782L99.3996 18.8774L100.241 18.3441L101.097 17.7799L101.969 17.1867L102.859 16.5666L103.767 15.9218L104.694 15.2551L105.641 14.5691L106.609 13.8669L107.599 13.1517L108.61 12.4269L109.643 11.6959L110.697 10.9625L111.773 10.2304L112.871 9.50364L113.989 8.78607L115.127 8.08175L116.284 7.39475L117.458 6.72916L118.649 6.08904L119.854 5.47842L121.073 4.90126L122.303 4.36148L123.541 3.86282L124.787 3.40894L126.037 3.00332L127.289 2.64927L128.54 2.34989L129.788 2.10806L131.029 1.92641L132.261 1.80731L133.481 1.75285L134.687 1.76484L135.874 1.84474L137.04 1.9937L138.183 2.21258L139.299 2.50183L140.386 2.86162L141.44 3.29172L142.461 3.79157" stroke="#CBAB6B" stroke-width="3"/>
</svg>
